<svg xmlns:xlink="http://www.w3.org/1999/xlink" class="fss-after" width="32" height="32" viewBox="0 0 32 32" fill="none" xmlns="http://www.w3.org/2000/svg">
							<path d="M4 5C3.44771 5 3 5.44772 3 6C3 6.55229 3.44771 7 4 7H5.87206C6.12652 7 6.26222 7.00066 6.36001 7.00804L6.36992 7.00882L6.37239 7.01846C6.39629 7.11357 6.42003 7.24719 6.46332 7.49793L7.88104 15.71C7.96479 16.1952 8.03734 16.6155 8.12495 16.9588C8.21776 17.3224 8.34534 17.6775 8.57914 18.0049C8.92972 18.496 9.4202 18.8699 9.98655 19.0778C10.3642 19.2165 10.7405 19.2454 11.1157 19.2386C11.4699 19.2322 11.8944 19.1908 12.3844 19.143L23.2436 18.0843L23.2436 18.0843C23.7231 18.0376 24.139 17.9971 24.4812 17.9365C24.8442 17.8722 25.2013 17.7736 25.5405 17.5706C26.05 17.2657 26.4576 16.8165 26.7116 16.2798C26.8807 15.9225 26.9442 15.5575 26.9729 15.1901C27 14.8436 27 14.4257 27 13.944V13.9439V13.3925V13.3924C27 12.8796 27 12.4365 26.9705 12.0707C26.9393 11.684 26.8704 11.2996 26.6851 10.9276C26.408 10.3715 25.965 9.91514 25.4174 9.62158C25.0512 9.42522 24.669 9.34492 24.2834 9.30221C23.9186 9.26181 23.4756 9.24861 22.963 9.23334L22.9252 9.23222L8.71918 8.8086L8.42934 7.12977L8.42933 7.12967C8.3928 6.91792 8.35663 6.7083 8.31208 6.531C8.26249 6.33369 8.18699 6.10751 8.03823 5.88578C7.82889 5.57374 7.53589 5.32699 7.19279 5.17379C6.94897 5.06492 6.71325 5.02899 6.51038 5.0137L4 5Z" fill="#33475B"></path>
							<path fill-rule="evenodd" clip-rule="evenodd" d="M12.0487 22.5756C11.3665 22.5756 10.8023 23.1345 10.8023 23.8378C10.8023 24.5411 11.3665 25.1 12.0487 25.1C12.7308 25.1 13.295 24.5411 13.295 23.8378C13.295 23.1345 12.7308 22.5756 12.0487 22.5756ZM9.00232 23.8378C9.00232 22.1529 10.36 20.7756 12.0487 20.7756C13.7373 20.7756 15.095 22.1529 15.095 23.8378C15.095 25.5228 13.7373 26.9 12.0487 26.9C10.36 26.9 9.00232 25.5228 9.00232 23.8378Z" fill="#33475B"></path>
							<path fill-rule="evenodd" clip-rule="evenodd" d="M22.244 22.5756C21.5619 22.5756 20.9976 23.1345 20.9976 23.8378C20.9976 24.5411 21.5619 25.1 22.244 25.1C22.9261 25.1 23.4903 24.5411 23.4903 23.8378C23.4903 23.1345 22.9261 22.5756 22.244 22.5756ZM19.1976 23.8378C19.1976 22.1529 20.5553 20.7756 22.244 20.7756C23.9326 20.7756 25.2903 22.1529 25.2903 23.8378C25.2903 25.5228 23.9326 26.9 22.244 26.9C20.5553 26.9 19.1976 25.5228 19.1976 23.8378Z" fill="#33475B"></path>
						</svg>