<!DOCTYPE svg PUBLIC "-//W3C//DTD SVG 1.1//EN" "http://www.w3.org/Graphics/SVG/1.1/DTD/svg11.dtd">

<!-- Uploaded to: SVG Repo, www.svgrepo.com, Transformed by: SVG Repo Mixer Tools -->
<svg width="20px" height="20px" viewBox="0 0 200 200" data-name="Layer 1" id="Layer_1" xmlns="http://www.w3.org/2000/svg" fill="#000000">

<g id="SVGRepo_bgCarrier" stroke-width="0"/>

<g id="SVGRepo_tracerCarrier" stroke-linecap="round" stroke-linejoin="round"/>

<g id="SVGRepo_iconCarrier">

<defs>

<style>.cls-1{fill:#ffffff;}.cls-2{fill:#ffc861;}.cls-3{fill:#2f4360;}.cls-4{fill:none;stroke:#2f4360;stroke-linecap:round;stroke-linejoin:round;stroke-width:5.96px;}</style>

</defs>

<title/>

<path class="cls-1" d="M176,123.16c0,1.66,0,3.3-.17,4.93a73.32,73.32,0,0,1-5.56,23.66H29.73a73.32,73.32,0,0,1-5.56-23.66C24,126.46,24,124.82,24,123.16A74.58,74.58,0,0,1,57.83,60.83,75.77,75.77,0,0,1,83,50.14a74.59,74.59,0,0,1,7.74-1.33,75.94,75.94,0,0,1,9.29-.56c1.51,0,3,0,4.5.14q2.59,0.15,5.13.47a73.92,73.92,0,0,1,7.75,1.36,72.71,72.71,0,0,1,8.79,2.6A75.33,75.33,0,0,1,176,123.16Z"/>

<path class="cls-2" d="M176,123.16c0,1.66,0,3.3-.17,4.93a73.32,73.32,0,0,1-5.56,23.66H38.73a73.32,73.32,0,0,1-5.56-23.66C33,126.46,33,124.82,33,123.16c0-39.88,31.62-72.49,71.5-74.78C144.38,50.67,176,83.28,176,123.16Z"/>

<path class="cls-3" d="M73.83,52.8V98.85a8,8,0,0,1-16,0v-38A76.18,76.18,0,0,1,73.83,52.8Z"/>

<path class="cls-3" d="M142.17,60.84v38a8,8,0,0,1-16,0v-46A75,75,0,0,1,142.17,60.84Z"/>

<path class="cls-3" d="M109.63,48.86V100.5a2.48,2.48,0,0,1-2.46,2.42h-14a2.48,2.48,0,0,1-2.46-2.42V48.81A74.59,74.59,0,0,0,83,50.14V100.5a10.14,10.14,0,0,0,10.2,10.05h14a10.15,10.15,0,0,0,10.21-10.05V50.22A73.92,73.92,0,0,0,109.63,48.86Z"/>

<path class="cls-4" d="M176,123.17c0,1.66,0,3.3-.17,4.93a73.32,73.32,0,0,1-5.56,23.66H29.73a73.32,73.32,0,0,1-5.56-23.66C24,126.47,24,124.82,24,123.17c0-41.37,34-74.91,76-74.91S176,81.8,176,123.17Z"/>

<path class="cls-1" d="M196.67,133v13.8a5,5,0,0,1-5,4.93H8.33a5,5,0,0,1-5-4.93V133a5,5,0,0,1,5-4.93H191.67A5,5,0,0,1,196.67,133Z"/>

<path class="cls-2" d="M196.67,133v13.8a5,5,0,0,1-5,4.93H18.83a5,5,0,0,1-5-4.93V133a5,5,0,0,1,5-4.93H191.67A5,5,0,0,1,196.67,133Z"/>

<path class="cls-4" d="M196.67,133v13.8a5,5,0,0,1-5,4.93H8.33a5,5,0,0,1-5-4.93V133a5,5,0,0,1,5-4.93H191.67A5,5,0,0,1,196.67,133Z"/>

</g>

</svg>