<!DOCTYPE svg PUBLIC "-//W3C//DTD SVG 1.1//EN" "http://www.w3.org/Graphics/SVG/1.1/DTD/svg11.dtd">

<!-- Uploaded to: SVG Repo, www.svgrepo.com, Transformed by: SVG Repo Mixer Tools -->
<svg fill="#ffb700ff" height="100px" width="100px" version="1.1" id="Layer_1" xmlns="http://www.w3.org/2000/svg" xmlns:xlink="http://www.w3.org/1999/xlink" viewBox="0 0 512 512" xml:space="preserve" stroke="#ffb700ff">

<g id="SVGRepo_bgCarrier" stroke-width="0"/>

<g id="SVGRepo_tracerCarrier" stroke-linecap="round" stroke-linejoin="round"/>

<g id="SVGRepo_iconCarrier"> <g> <g> <path d="M511.987,105.285c-0.117-2.013-1.029-3.898-2.535-5.239L407.939,9.675c-3.135-2.792-7.943-2.513-10.735,0.624 L285.146,136.169l-0.001,0.001L1.948,451.345c-1.352,1.505-2.049,3.486-1.936,5.505c0.113,2.02,1.025,3.911,2.536,5.257 l41.5,36.941c0.014,0.013,0.029,0.026,0.045,0.04l0.106,0.095c0.034,0.03,0.071,0.056,0.104,0.085 c0.137,0.119,0.277,0.233,0.423,0.342c0.046,0.033,0.092,0.064,0.139,0.096c0.148,0.105,0.298,0.208,0.455,0.303 c0.044,0.026,0.089,0.05,0.134,0.075c0.161,0.093,0.324,0.185,0.493,0.267c0.027,0.013,0.055,0.023,0.082,0.036 c0.529,0.248,1.093,0.435,1.684,0.557c0.071,0.014,0.142,0.033,0.213,0.047c0.129,0.022,0.26,0.036,0.391,0.053 c0.113,0.014,0.225,0.029,0.339,0.039c0.041,0.003,0.08,0.011,0.122,0.014l50.02,3.138c0.162,0.01,0.323,0.015,0.484,0.015 c3.981,0,7.329-3.099,7.582-7.128l2.661-42.431l42.431,2.661c4.187,0.258,7.802-2.921,8.065-7.113l2.661-42.431l42.431,2.662 c2.006,0.125,3.993-0.553,5.506-1.886c1.513-1.334,2.433-3.214,2.559-5.226l2.661-42.431l42.431,2.662 c2.014,0.123,3.994-0.553,5.506-1.886c1.513-1.334,2.433-3.214,2.559-5.226l2.661-42.431l42.431,2.662 c2.008,0.124,3.993-0.553,5.506-1.886c1.513-1.334,2.433-3.214,2.559-5.226l2.661-42.431l42.431,2.662 c4.116,0.243,7.706-2.83,8.053-6.951l3.714-44.109l47.781-13.272c1.407-0.391,2.672-1.179,3.644-2.271l82.294-92.44 C511.417,109.276,512.105,107.299,511.987,105.285z M92.161,488.577l-24.11-1.513l25.621-22.596L92.161,488.577z M145.318,441.697 l-24.109-1.513l25.621-22.596L145.318,441.697z M198.477,394.815l-24.109-1.513l25.621-22.596L198.477,394.815z M251.635,347.933 l-24.109-1.513l25.621-22.596L251.635,347.933z M304.794,301.051l-24.109-1.513l25.621-22.596L304.794,301.051z M310.019,253.39 c-0.001,0.001-0.003,0.002-0.004,0.003c-0.001,0.001-0.002,0.002-0.004,0.003l-53.151,46.875 c-0.001,0.001-0.003,0.002-0.005,0.004c-0.002,0.002-0.003,0.003-0.004,0.004l-53.149,46.874 c-0.002,0.001-0.003,0.003-0.005,0.004c-0.002,0.001-0.003,0.003-0.005,0.005l-53.148,46.873 c-0.002,0.002-0.004,0.003-0.006,0.005c-0.002,0.002-0.003,0.003-0.005,0.005l-101.256,89.3l-30.913-27.516l273.034-303.863 l66.498,59.2L310.019,253.39z M358.113,254.18l-24.27-1.523l26.355-23.243L358.113,254.18z M417.911,191.438l-45.199,12.555 l-26.622-23.7l-44.553-39.663l101.969-114.54l90.155,80.259L417.911,191.438z"/> </g> </g> <g> <g> <path d="M460.832,105.559l-52.174-46.448c-3.134-2.793-7.943-2.514-10.735,0.622l-58.415,65.615 c-4.241,4.764-6.373,10.896-6.003,17.263c0.37,6.368,3.198,12.211,7.962,16.453l12.341,10.986 c6.436,5.729,14.753,8.82,23.227,8.82c2.471,0,4.955-0.263,7.408-0.8l16.276-3.559c7.238-1.583,13.668-5.344,18.594-10.879 l42.143-47.339C464.248,113.157,463.969,108.351,460.832,105.559z M407.954,153.522c-2.778,3.121-6.404,5.242-10.484,6.134 l-16.276,3.559c-6.127,1.34-12.587-0.351-17.274-4.522l-12.341-10.986c-1.731-1.54-2.757-3.662-2.892-5.976 c-0.134-2.313,0.64-4.54,2.18-6.27l53.359-59.935l40.815,36.336L407.954,153.522z"/> </g> </g> </g>

</svg>