<!DOCTYPE svg PUBLIC "-//W3C//DTD SVG 1.1//EN" "http://www.w3.org/Graphics/SVG/1.1/DTD/svg11.dtd">

<!-- Uploaded to: SVG Repo, www.svgrepo.com, Transformed by: SVG Repo Mixer Tools -->
<svg width="100px" height="100px" viewBox="0 0 100 100" data-name="Layer 1" id="Layer_1" xmlns="http://www.w3.org/2000/svg" fill="#ffb700ff" stroke="#ffb700ff" transform="rotate(45)">

<g id="SVGRepo_bgCarrier" stroke-width="0"/>

<g id="SVGRepo_tracerCarrier" stroke-linecap="round" stroke-linejoin="round"/>

<g id="SVGRepo_iconCarrier">

<defs>

<style>.cls-1{fill:#1d1d1b;}</style>

</defs>

<path class="cls-1" d="M50.52,6.07A3.37,3.37,0,1,0,54,9.43,3.4,3.4,0,0,0,50.52,6.07Zm0,5.73A2.37,2.37,0,1,1,53,9.43,2.41,2.41,0,0,1,50.52,11.8Z"/>

<path class="cls-1" d="M69.59,98.42l-1-35.95h0v-3.2a.5.5,0,0,0-.33-.47L55.81,54.1l1.27-39.61a3.74,3.74,0,0,1,.26-1.33A8.68,8.68,0,0,0,58,9.74c0-4.5-3.37-8.16-7.52-8.16S43,5.24,43,9.74a24.1,24.1,0,0,0,.55,3.61,2.6,2.6,0,0,1,.05.39L44.88,54.1,32.22,58.79a.5.5,0,0,0-.32.47v3.2h0L30.41,98.23ZM32.88,63H67.59l.32,11.56H32.4Zm3,12.56-.64,21.74H33.94l.64-21.73Zm1,0h1.35l-.64,21.75H36.29Zm2.35,0h1.35L40,97.28H38.64Zm2.35,0H43l-.64,21.77H41Zm2.35,0h1.34L44.69,97.3H43.34Zm2.35,0h1.34L47,97.31H45.69Zm2.35,0h.7L50,97.33H48Zm1.7,0h1.35l.64,21.82H51Zm2.35,0h1.35l.64,21.83H53.37Zm2.35,0h1.35l.64,21.84H55.72Zm2.35,0h1.35l.64,21.85H58.07Zm2.35,0h1.35l.64,21.86H60.42Zm2.35,0h1.35l.64,21.87H62.77Zm2.35,0h1.35l.64,21.88H65.12Zm-30.9,0-.64,21.73H31.45l.91-21.72ZM67.47,97.41l-.64-21.89h1.11l.62,21.89ZM32.9,59.61l12.67-4.7a.5.5,0,0,0,.32-.49L44.59,13.7a3.57,3.57,0,0,0-.07-.56A23.84,23.84,0,0,1,44,9.74c0-3.95,2.93-7.16,6.53-7.16S57,5.79,57,9.74a7.64,7.64,0,0,1-.62,3,4.62,4.62,0,0,0-.34,1.69l-1.29,40a.52.52,0,0,0,.33.49L67.58,59.6V62H32.9Z"/>

</g>

</svg>