<!DOCTYPE svg PUBLIC "-//W3C//DTD SVG 1.1//EN" "http://www.w3.org/Graphics/SVG/1.1/DTD/svg11.dtd">

<!-- Uploaded to: SVG Repo, www.svgrepo.com, Transformed by: SVG Repo Mixer Tools -->
<svg fill="#ffb700ff" height="100px" width="100px" version="1.1" id="Layer_1" xmlns="http://www.w3.org/2000/svg" xmlns:xlink="http://www.w3.org/1999/xlink" viewBox="0 0 512 512" xml:space="preserve" stroke="#ffb700ff" transform="rotate(45)matrix(-1, 0, 0, 1, 0, 0)">

<g id="SVGRepo_bgCarrier" stroke-width="0"/>

<g id="SVGRepo_tracerCarrier" stroke-linecap="round" stroke-linejoin="round"/>

<g id="SVGRepo_iconCarrier"> <g transform="translate(1 1)"> <g> <path d="M411.495,7.533h-42.667c-4.267,0-8.533,1.707-11.947,5.12s-5.12,7.68-5.12,11.947c-8.533,0-10.24-0.853-15.36-5.973 c-1.707-2.56-5.12-5.12-8.533-7.68C317.628,3.267,304.828-1,292.028-1h-44.373c-25.6,0-37.547,0-61.44,9.387 C135.868,27.16,102.588,65.56,73.575,140.653c-1.707,3.413,0,7.68,3.413,10.24c0.853,0.853,2.56,1.707,4.267,1.707 s4.267-0.853,5.973-2.56l7.68-7.68c26.453-27.307,40.107-40.96,88.747-40.96c23.04,0,40.107,17.92,40.107,42.667v102.4v230.4 c0,18.773,15.36,34.133,34.133,34.133h17.067c18.773,0,34.133-15.36,34.133-34.133v-230.4v-94.63 c6.313-1.275,10.194-4.073,14.507-7.77c0.853-0.853,1.707-1.707,3.413-2.56c4.267-2.56,6.827-5.12,9.387-7.68 c5.12-5.12,6.827-6.827,15.36-6.827c0,4.267,1.707,8.533,4.267,11.947c3.413,3.413,7.68,5.12,12.8,5.12h42.667 c14.507,0,25.6-11.093,25.6-25.6V33.133C437.095,18.627,426.001,7.533,411.495,7.533z M292.028,237.933h-51.2V152.6h51.2V237.933z M292.028,476.867c0,9.387-7.68,17.067-17.067,17.067h-17.067c-9.387,0-17.067-7.68-17.067-17.067v-8.533h17.067 c4.267,0,8.533-3.413,8.533-8.533c0-5.12-3.413-8.533-8.533-8.533h-17.067V434.2h17.067c4.267,0,8.533-3.413,8.533-8.533 s-3.413-8.533-8.533-8.533h-17.067V255h51.2V476.867z M420.028,118.467c0,5.12-3.413,8.533-8.533,8.533h-42.667 c0-4.267-1.707-8.533-5.12-10.24c-3.413-4.267-7.68-5.973-12.8-5.973c-14.507,0-19.627,3.413-26.453,10.24 c-1.707,1.707-4.267,4.267-7.68,6.827c-0.853,0.853-2.56,1.707-3.413,2.56c-5.12,4.267-6.827,5.12-12.8,5.12h-60.587 c-3.413-29.013-27.307-51.2-56.32-51.2c-38.4,0-58.88,8.533-76.8,23.04C129.895,63,156.348,37.4,192.188,23.747 c20.48-7.68,29.867-7.68,55.467-7.68h44.373c9.387,0,18.773,3.413,25.6,8.533c3.413,2.56,5.973,5.12,7.68,6.827 c6.827,5.973,11.947,10.24,26.453,10.24c4.267,0,9.387-1.707,11.947-5.12c3.413-3.413,5.12-7.68,5.12-11.947h42.667 c5.12,0,8.533,3.413,8.533,8.533V118.467z"/> </g> </g> </g>

</svg>