<!DOCTYPE svg PUBLIC "-//W3C//DTD SVG 1.1//EN" "http://www.w3.org/Graphics/SVG/1.1/DTD/svg11.dtd">

<!-- Uploaded to: SVG Repo, www.svgrepo.com, Transformed by: SVG Repo Mixer Tools -->
<svg fill="#ffb700ff" height="100px" width="100px" version="1.1" id="Layer_1" xmlns="http://www.w3.org/2000/svg" xmlns:xlink="http://www.w3.org/1999/xlink" viewBox="0 0 511.707 511.707" xml:space="preserve" stroke="#ffb700ff" transform="rotate(45)">

<g id="SVGRepo_bgCarrier" stroke-width="0"/>

<g id="SVGRepo_tracerCarrier" stroke-linecap="round" stroke-linejoin="round"/>

<g id="SVGRepo_iconCarrier"> <g transform="translate(1 1)"> <g> <g> <path d="M292.4-0.439c-2.56-0.853-5.973-0.853-8.533,0.853c-1.707,1.707-3.413,4.267-3.413,6.827v66.56l-14.022,27.307H246.32 V7.241c0-2.56-0.853-5.12-4.267-6.827c-1.707-1.707-5.12-1.707-7.68-0.853c-49.855,20.575-70.342,64.629-73.057,101.547h-8.863 c-5.12,0-8.533,3.413-8.533,8.533c0,24.747,9.387,47.787,25.6,67.413c21.333,25.6,33.28,55.467,34.133,85.333 c0,3.413,0,6.827,0,9.387v186.027c0,31.573,20.48,52.907,51.2,52.907c30.72,0,51.2-21.333,51.2-51.2V271.774 c0-3.413,0-5.973,0-9.387c0.853-29.867,11.947-59.733,34.133-85.333c17.067-19.627,25.6-42.667,25.6-67.413 C365.787,58.441,338.48,17.48,292.4-0.439z M296.667,78.921c0.853-0.853,0.853-1.707,0.853-3.413V20.894 c40.107,21.333,49.493,58.027,51.2,80.213h-63.147L296.667,78.921z M230.107,20.894v80.213h-51.2 C180.614,72.947,195.12,39.667,230.107,20.894z M327.387,165.961c-24.747,29.013-37.547,62.293-38.4,96.427 c0,3.413,0,5.973,0,9.387v187.733c0,20.48-13.653,34.133-34.133,34.133c-20.78,0-33.458-12.957-34.102-34.133h25.569 c5.12,0,8.533-3.413,8.533-8.533c0-5.12-3.413-8.533-8.533-8.533h-25.6v-17.067h25.6c5.12,0,8.533-3.413,8.533-8.533 s-3.413-8.533-8.533-8.533h-25.6V271.774c0-2.56,0-5.973,0-9.387c-0.853-34.133-13.653-67.413-38.4-96.427 c-11.947-14.507-18.773-30.72-20.48-47.787h7.68h68.267h34.133h75.947C346.16,135.241,339.334,151.454,327.387,165.961z"/> <path d="M254.854,135.241c-5.12,0-8.533,3.413-8.533,8.533v25.6c0,5.12,3.413,8.533,8.533,8.533c5.12,0,8.533-4.267,8.533-8.533 v-25.6C263.387,138.654,259.974,135.241,254.854,135.241z"/> <path d="M220.72,135.241c-5.12,0-8.533,3.413-8.533,8.533v25.6c0,5.12,3.413,8.533,8.533,8.533s8.533-4.267,8.533-8.533v-25.6 C229.254,138.654,225.84,135.241,220.72,135.241z"/> <path d="M288.987,177.907c5.12,0,8.533-4.267,8.533-8.533v-25.6c0-5.12-3.413-8.533-8.533-8.533c-5.12,0-8.533,3.413-8.533,8.533 v25.6C280.454,174.494,283.867,177.907,288.987,177.907z"/> </g> </g> </g> </g>

</svg>