<svg xmlns:xlink="http://www.w3.org/1999/xlink" class="fss-before" width="32" height="32" viewBox="0 0 32 32" fill="none" xmlns="http://www.w3.org/2000/svg">
							<path d="M26 5.99994H6C5.44772 5.99994 5 6.44765 5 6.99994C5 7.55222 5.44772 7.99994 6 7.99994H26C26.5523 7.99994 27 7.55222 27 6.99994C27 6.44765 26.5523 5.99994 26 5.99994Z" fill="#33475B"></path>
							<path d="M24 2.99994H8C7.44772 2.99994 7 3.44765 7 3.99994C7 4.55222 7.44772 4.99994 8 4.99994H24C24.5523 4.99994 25 4.55222 25 3.99994C25 3.44765 24.5523 2.99994 24 2.99994Z" fill="#33475B"></path>
							<path fill-rule="evenodd" clip-rule="evenodd" d="M3 12.9999C3 10.7908 4.79086 8.99994 7 8.99994H25C27.2091 8.99994 29 10.7908 29 12.9999V24.9999C29 27.2091 27.2091 28.9999 25 28.9999H7C4.79086 28.9999 3 27.2091 3 24.9999V12.9999ZM11.2142 23.9962C11.0575 23.9962 10.9524 23.8414 11.0218 23.7026L15.8007 14.1131C15.8761 13.9623 16.0883 13.9623 16.1637 14.1131L16.5247 14.8371C18.9529 19.7192 15.6459 24.0041 11.2142 23.9962ZM18.3797 19.2906C18.4531 19.1399 18.6674 19.1399 18.7428 19.2906L20.9785 23.7065C21.0459 23.8414 20.9467 24.0001 20.796 24.0001H18.8578C17.4335 24.0001 16.6896 22.6194 17.2807 21.4371L18.3797 19.2906Z" fill="#33475B"></path>						
						</svg>